<?xml version="1.0" encoding="UTF-8" standalone="no"?>
<!-- Created with Inkscape (http://www.inkscape.org/) -->

<svg
   xmlns:dc="http://purl.org/dc/elements/1.1/"
   xmlns:cc="http://creativecommons.org/ns#"
   xmlns:rdf="http://www.w3.org/1999/02/22-rdf-syntax-ns#"
   xmlns:svg="http://www.w3.org/2000/svg"
   xmlns="http://www.w3.org/2000/svg"
   xmlns:sodipodi="http://sodipodi.sourceforge.net/DTD/sodipodi-0.dtd"
   xmlns:inkscape="http://www.inkscape.org/namespaces/inkscape"
   width="70mm"
   height="50mm"
   viewBox="0 0 248.0315 177.16535"
   id="svg2"
   version="1.1"
   inkscape:version="0.91 r13725"
   sodipodi:docname="icon_equipo.svg">
  <defs
     id="defs4" />
  <sodipodi:namedview
     id="base"
     pagecolor="#ffffff"
     bordercolor="#666666"
     borderopacity="1.0"
     inkscape:pageopacity="0.0"
     inkscape:pageshadow="2"
     inkscape:zoom="2"
     inkscape:cx="151.65091"
     inkscape:cy="59.163981"
     inkscape:document-units="px"
     inkscape:current-layer="layer1"
     showgrid="false"
     inkscape:snap-global="true"
     inkscape:object-paths="true"
     inkscape:snap-intersection-paths="false"
     inkscape:snap-nodes="false"
     inkscape:snap-smooth-nodes="false"
     inkscape:object-nodes="true"
     inkscape:snap-midpoints="false"
     inkscape:snap-bbox="true"
     inkscape:snap-others="true"
     inkscape:window-width="1375"
     inkscape:window-height="876"
     inkscape:window-x="65"
     inkscape:window-y="24"
     inkscape:window-maximized="1"
     inkscape:snap-page="true"
     inkscape:bbox-nodes="true" />
  <metadata
     id="metadata7">
    <rdf:RDF>
      <cc:Work
         rdf:about="">
        <dc:format>image/svg+xml</dc:format>
        <dc:type
           rdf:resource="http://purl.org/dc/dcmitype/StillImage" />
        <dc:title></dc:title>
      </cc:Work>
    </rdf:RDF>
  </metadata>
  <g
     inkscape:label="Layer 1"
     inkscape:groupmode="layer"
     id="layer1"
     transform="translate(0,-875.19685)">
    <g
       id="g4382"
       transform="matrix(0.65584841,0,0,0.62482157,-97.521464,553.24884)">
      <path
         sodipodi:nodetypes="cc"
         inkscape:connector-curvature="0"
         id="path4307"
         d="m 427.82135,736.66894 0,40.69326"
         style="fill:#000000;fill-opacity:1;fill-rule:evenodd;stroke:#ff3385;stroke-width:7;stroke-linecap:butt;stroke-linejoin:miter;stroke-miterlimit:4;stroke-dasharray:none;stroke-opacity:1" />
      <path
         style="fill:none;fill-opacity:1;fill-rule:evenodd;stroke:#ff3385;stroke-width:7;stroke-linecap:butt;stroke-linejoin:miter;stroke-miterlimit:4;stroke-dasharray:none;stroke-opacity:1"
         d="m 360,738.79078 c 188.45988,0 162.14286,-3.79349 162.14286,60"
         id="path4320"
         inkscape:connector-curvature="0"
         sodipodi:nodetypes="cc" />
      <path
         id="path4315"
         d="m 181.07143,684.50506 c -25.94845,-4.27857 -32.3652,-37.71597 -3.21429,-45.35714 25.48725,-6.68083 52.50045,-11.56213 68.92857,-70 12.56486,53.64577 39.31435,59.64781 62.70921,71.39267 26.03967,0.16071 31.92097,33.14034 3.21429,43.92857 0,0 -17.17598,42.73389 -65.92349,43.25019 -49.48287,0.52409 -65.71429,-43.21429 -65.71429,-43.21429 z"
         style="fill:none;fill-rule:evenodd;stroke:#ff3385;stroke-width:7;stroke-linecap:butt;stroke-linejoin:miter;stroke-miterlimit:4;stroke-dasharray:none;stroke-opacity:1"
         inkscape:connector-curvature="0" />
      <path
         sodipodi:nodetypes="ccccsc"
         inkscape:connector-curvature="0"
         id="path4313"
         d="m 222.60785,724.01554 c -11.53232,27.62495 -65.37726,15.0165 -70.07465,62.67587 l 191.92969,3.03125 c -48.40193,-73.43822 -57.73964,-22.47769 -72.19323,-66.66488 -0.1751,51.80776 -19.36687,49.82094 -25.34583,49.95589 -6.73544,0.15202 -25.56695,-1.69805 -24.31598,-48.99813 z"
         style="fill:none;fill-rule:evenodd;stroke:#ff3385;stroke-width:7;stroke-linecap:butt;stroke-linejoin:miter;stroke-miterlimit:4;stroke-dasharray:none;stroke-opacity:1" />
      <path
         id="path4311"
         d="m 229.07239,669.51439 40.4061,1.01015 c 0,0 6.08061,31.31473 -19.19289,31.31473 -28.60613,0 -21.21321,-32.32488 -21.21321,-32.32488 z"
         style="fill:none;fill-rule:evenodd;stroke:#ff3385;stroke-width:7;stroke-linecap:butt;stroke-linejoin:miter;stroke-miterlimit:4;stroke-dasharray:none;stroke-opacity:1"
         inkscape:connector-curvature="0" />
      <path
         sodipodi:nodetypes="csscccc"
         inkscape:connector-curvature="0"
         id="path4263"
         d="m 299.90925,747.6627 c 18.50302,-28.48167 10.5726,-38.60527 10.20794,-115.52409 -0.13332,-28.12222 18.58849,-107.73981 -60.60938,-113.13672 -1.66671,-0.11357 -3.29757,-0.17539 -4.89258,-0.1875 l 0,6e-5 c -87.53377,0.21019 -57.24806,109.76364 -63.69677,165.66501 -3.9126,39.73923 -8.88793,53.04829 4.15288,64.20112"
         style="fill:none;fill-rule:evenodd;stroke:#ff3385;stroke-width:7;stroke-linecap:butt;stroke-linejoin:miter;stroke-miterlimit:4;stroke-dasharray:none;stroke-opacity:1" />
      <path
         sodipodi:nodetypes="cccccccccsc"
         inkscape:connector-curvature="0"
         id="path4299"
         d="m 333.28571,528.79073 c 0,32.60568 3.88786,62.34454 33.14202,57.85771 l 111.42969,0.71289 c 25.07112,0.63165 14.50443,42.84076 19.28516,67.14453 l 21.42969,0.71289 c -4.69314,-38.58336 11.79638,-94.62229 -15.00112,-106.00028 l -36.09653,-0.71261 c 17.36697,-30.08047 -91.85418,-19.71513 -134.18891,-19.71513 z m 33.14202,57.85771 c -17.9265,133.68868 28.46851,137.85742 56.42969,137.85742 69.27301,0 74.28516,-70 74.28516,-70"
         style="fill:none;fill-opacity:1;fill-rule:evenodd;stroke:#ff3385;stroke-width:7;stroke-linecap:butt;stroke-linejoin:miter;stroke-miterlimit:4;stroke-dasharray:none;stroke-opacity:1" />
      <path
         sodipodi:nodetypes="cc"
         inkscape:connector-curvature="0"
         id="path4303"
         d="m 360,738.79078 c 188.45988,0 162.14286,-3.79349 162.14286,60"
         style="fill:none;fill-opacity:1;fill-rule:evenodd;stroke:#ff3385;stroke-width:7;stroke-linecap:butt;stroke-linejoin:miter;stroke-miterlimit:4;stroke-dasharray:none;stroke-opacity:1" />
      <path
         sodipodi:nodetypes="ccsc"
         inkscape:connector-curvature="0"
         style="fill:none;fill-opacity:1;fill-rule:evenodd;stroke:#ff3385;stroke-width:7;stroke-linecap:butt;stroke-linejoin:miter;stroke-miterlimit:4;stroke-dasharray:none;stroke-opacity:1"
         d="m 398.67985,663.44272 52.89411,0.94377 c 0,0 3.41421,24.06619 -26.6902,24.06619 -34.07406,0 -26.20391,-25.00996 -26.20391,-25.00996 z"
         id="path4317" />
      <path
         sodipodi:nodetypes="cc"
         inkscape:connector-curvature="0"
         id="path4322"
         d="m 408.80941,776.52396 0,-37.77503"
         style="fill:none;fill-rule:evenodd;stroke:#ff3385;stroke-width:7;stroke-linecap:butt;stroke-linejoin:miter;stroke-miterlimit:4;stroke-dasharray:none;stroke-opacity:1" />
      <path
         sodipodi:nodetypes="cc"
         inkscape:connector-curvature="0"
         id="path4324"
         d="m 427.82135,777.3622 0,-40.69326"
         style="fill:none;fill-rule:evenodd;stroke:#ff3385;stroke-width:7;stroke-linecap:butt;stroke-linejoin:miter;stroke-miterlimit:4;stroke-dasharray:none;stroke-opacity:1" />
    </g>
  </g>
</svg>
