<?xml version="1.0" encoding="UTF-8" standalone="no"?>
<!-- Created with Inkscape (http://www.inkscape.org/) -->

<svg
   xmlns:dc="http://purl.org/dc/elements/1.1/"
   xmlns:cc="http://creativecommons.org/ns#"
   xmlns:rdf="http://www.w3.org/1999/02/22-rdf-syntax-ns#"
   xmlns:svg="http://www.w3.org/2000/svg"
   xmlns="http://www.w3.org/2000/svg"
   xmlns:sodipodi="http://sodipodi.sourceforge.net/DTD/sodipodi-0.dtd"
   xmlns:inkscape="http://www.inkscape.org/namespaces/inkscape"
   width="70mm"
   height="50mm"
   viewBox="0 0 248.0315 177.16535"
   id="svg2"
   version="1.1"
   inkscape:version="0.91 r13725"
   sodipodi:docname="icon_equipo.svg">
  <defs
     id="defs4" />
  <sodipodi:namedview
     id="base"
     pagecolor="#ffffff"
     bordercolor="#666666"
     borderopacity="1.0"
     inkscape:pageopacity="0.0"
     inkscape:pageshadow="2"
     inkscape:zoom="1.4142136"
     inkscape:cx="123.62898"
     inkscape:cy="-25.069103"
     inkscape:document-units="px"
     inkscape:current-layer="layer1"
     showgrid="false"
     inkscape:snap-global="true"
     inkscape:object-paths="true"
     inkscape:snap-intersection-paths="false"
     inkscape:snap-nodes="true"
     inkscape:snap-smooth-nodes="false"
     inkscape:object-nodes="true"
     inkscape:snap-midpoints="false"
     inkscape:snap-bbox="true"
     inkscape:snap-others="true"
     inkscape:window-width="1375"
     inkscape:window-height="876"
     inkscape:window-x="65"
     inkscape:window-y="24"
     inkscape:window-maximized="1"
     inkscape:snap-page="true"
     inkscape:bbox-nodes="true" />
  <metadata
     id="metadata7">
    <rdf:RDF>
      <cc:Work
         rdf:about="">
        <dc:format>image/svg+xml</dc:format>
        <dc:type
           rdf:resource="http://purl.org/dc/dcmitype/StillImage" />
        <dc:title />
      </cc:Work>
    </rdf:RDF>
  </metadata>
  <g
     inkscape:label="Layer 1"
     inkscape:groupmode="layer"
     id="layer1"
     transform="translate(0,-875.19685)">
    <path
       inkscape:connector-curvature="0"
       style="fill:none;fill-rule:evenodd;stroke:#ff3385;stroke-width:4.48102951;stroke-linecap:butt;stroke-linejoin:miter;stroke-miterlimit:4;stroke-dasharray:none;stroke-opacity:1"
       d="M 21.233945,980.94237 C 4.2156958,978.26902 0.0072805,957.37661 19.125858,952.60225 c 16.715773,-4.17433 34.432337,-7.22427 45.206694,-43.73751 8.240643,33.51903 25.784253,37.26924 41.127738,44.60768 17.07807,0.10041 20.93531,20.7068 2.10808,27.44752 0,0 -11.264835,26.70106 -43.235812,27.02366 -32.453262,0.3274 -43.098613,-27.00123 -43.098613,-27.00123 z"
       id="path4315" />
    <path
       style="fill:none;fill-rule:evenodd;stroke:#ff3385;stroke-width:4.481;stroke-linecap:butt;stroke-linejoin:miter;stroke-miterlimit:4;stroke-dasharray:none;stroke-opacity:1"
       d="M 48.47554,1005.6294 C 40.912087,1022.89 7.5979685,1016.906 4.5171927,1046.6846 l 123.8767773,0 c -31.744324,-45.8858 -37.868446,-14.0446 -47.34781,-41.6537 -0.114839,32.3706 -12.701731,31.1292 -16.623023,31.2136 -4.417427,0.095 -16.768043,-1.061 -15.947597,-30.6151 z"
       id="path4313"
       inkscape:connector-curvature="0"
       sodipodi:nodetypes="ccccsc" />
    <path
       inkscape:connector-curvature="0"
       style="fill:none;fill-rule:evenodd;stroke:#ff3385;stroke-width:4.48102951;stroke-linecap:butt;stroke-linejoin:miter;stroke-miterlimit:4;stroke-dasharray:none;stroke-opacity:1"
       d="m 52.715299,971.57587 26.500276,0.63117 c 0,0 3.987959,19.56611 -12.587626,19.56611 -18.761285,0 -13.91265,-20.19728 -13.91265,-20.19728 z"
       id="path4311" />
    <path
       style="fill:none;fill-rule:evenodd;stroke:#ff3385;stroke-width:4.48102951;stroke-linecap:butt;stroke-linejoin:miter;stroke-miterlimit:4;stroke-dasharray:none;stroke-opacity:1"
       d="m 99.173541,1020.4046 c 12.135179,-17.7959 6.934019,-24.12138 6.694859,-72.18192 -0.0874,-17.57137 12.19123,-67.31816 -39.750564,-70.69026 -1.093109,-0.071 -2.162706,-0.10959 -3.20879,-0.11716 l 0,4e-5 c -57.4088842,0.13133 -37.546049,68.58269 -41.775426,103.51107 -2.566072,24.82993 -5.829134,33.14573 2.72366,40.11423"
       id="path4263"
       inkscape:connector-curvature="0"
       sodipodi:nodetypes="csscccc" />
    <g
       id="g4164"
       transform="translate(-4,0)">
      <path
         sodipodi:nodetypes="cccccccccsc"
         inkscape:connector-curvature="0"
         id="path4299"
         d="m 121.06344,883.64869 c 0,20.37274 2.54985,38.95422 21.73614,36.15075 l 73.08099,0.44543 c 16.44285,0.39467 9.5127,26.76783 12.64814,41.95335 l 14.05462,0.44543 c -3.07798,-24.10772 7.73664,-59.12205 -9.83846,-66.23126 l -23.67385,-0.44526 c 11.3901,-18.79492 -60.24242,-12.31844 -88.00758,-12.31844 z m 21.73614,36.15075 c -11.75707,83.53156 18.67103,86.13626 37.00932,86.13626 45.4326,0 48.71981,-43.73748 48.71981,-43.73748"
         style="fill:none;fill-opacity:1;fill-rule:evenodd;stroke:#ff3385;stroke-width:4.48102951;stroke-linecap:butt;stroke-linejoin:miter;stroke-miterlimit:4;stroke-dasharray:none;stroke-opacity:1" />
      <path
         sodipodi:nodetypes="ccsc"
         inkscape:connector-curvature="0"
         style="fill:none;fill-opacity:1;fill-rule:evenodd;stroke:#ff3385;stroke-width:4.48102951;stroke-linecap:butt;stroke-linejoin:miter;stroke-miterlimit:4;stroke-dasharray:none;stroke-opacity:1"
         d="m 163.95208,967.78216 34.69052,0.58969 c 0,0 2.2392,15.03707 -17.50473,15.03707 -22.34741,0 -17.18579,-15.62676 -17.18579,-15.62676 z"
         id="path4317" />
      <g
         id="g4173">
        <g
           id="g4177">
          <g
             id="g4181"
             transform="translate(6,0)">
            <path
               style="fill:none;fill-rule:evenodd;stroke:#ff3385;stroke-width:4.48102951;stroke-linecap:butt;stroke-linejoin:miter;stroke-miterlimit:4;stroke-dasharray:none;stroke-opacity:1"
               d="m 170.59554,1046.6846 -0.003,-31.9216"
               id="path4322"
               inkscape:connector-curvature="0"
               sodipodi:nodetypes="cc" />
            <path
               style="fill:none;fill-rule:evenodd;stroke:#ff3385;stroke-width:4.48102951;stroke-linecap:butt;stroke-linejoin:miter;stroke-miterlimit:4;stroke-dasharray:none;stroke-opacity:1"
               d="m 183.31449,1046.6846 -0.25128,-32.0401"
               id="path4324"
               inkscape:connector-curvature="0"
               sodipodi:nodetypes="cc" />
          </g>
        </g>
      </g>
    </g>
    <path
       style="fill:none;fill-rule:evenodd;stroke:#ff3385;stroke-width:4.48099995;stroke-linecap:butt;stroke-linejoin:miter;stroke-miterlimit:4;stroke-dasharray:none;stroke-opacity:1"
       d="m 128.39397,1046.6846 114.60603,0 c 0,-38.5867 14.10035,-31.9316 -97.00093,-31.8291 -23.16712,0.021 -24.78714,17.5905 -28.7341,17.5905"
       id="path4171"
       inkscape:connector-curvature="0"
       sodipodi:nodetypes="ccsc" />
  </g>
</svg>
